
    <svg width="current" eight="current" viewBox="0 0 418 24" xmlns="http://www.w3.org/2000/svg">
        <path d="M16.3395 7.384C16.3395 8.51467 16.0728 9.58133 15.5395 10.584C15.0061 11.5867 14.1528 12.408 12.9795 13.048C11.8061 13.6667 10.3021 13.976 8.46748 13.976H4.43548V23H0.787476V0.76H8.46748C10.1741 0.76 11.6141 1.05867 12.7875 1.656C13.9821 2.232 14.8675 3.02133 15.4435 4.024C16.0408 5.02667 16.3395 6.14667 16.3395 7.384ZM8.46748 11C9.85414 11 10.8888 10.6907 11.5715 10.072C12.2541 9.432 12.5955 8.536 12.5955 7.384C12.5955 4.952 11.2195 3.736 8.46748 3.736H4.43548V11H8.46748Z" fill="current" fill-rule="evenodd"/>
        <path d="M60.2667 20.056H67.7867V23H56.6187V0.76H60.2667V20.056Z" fill="current" fill-rule="evenodd"/>
        <path d="M121.045 18.456H111.733L110.133 23H106.325L114.293 0.728001H118.517L126.485 23H122.645L121.045 18.456ZM120.021 15.48L116.405 5.144L112.757 15.48H120.021Z" fill="current" fill-rule="evenodd"/>
        <path d="M181.118 0.76V3.736H175.198V23H171.55V3.736H165.598V0.76H181.118Z" fill="current" fill-rule="evenodd"/>
        <path d="M234.7 0.76V3.736H225.26V10.296H232.62V13.272H225.26V23H221.612V0.76H234.7Z" fill="current" fill-rule="evenodd"/>
        <path d="M285.025 23.224C282.956 23.224 281.047 22.744 279.297 21.784C277.569 20.8027 276.193 19.448 275.169 17.72C274.167 15.9707 273.665 14.008 273.665 11.832C273.665 9.656 274.167 7.704 275.169 5.976C276.193 4.248 277.569 2.904 279.297 1.944C281.047 0.962667 282.956 0.472 285.025 0.472C287.116 0.472 289.025 0.962667 290.753 1.944C292.503 2.904 293.879 4.248 294.881 5.976C295.884 7.704 296.385 9.656 296.385 11.832C296.385 14.008 295.884 15.9707 294.881 17.72C293.879 19.448 292.503 20.8027 290.753 21.784C289.025 22.744 287.116 23.224 285.025 23.224ZM285.025 20.056C286.497 20.056 287.809 19.7253 288.961 19.064C290.113 18.3813 291.009 17.4213 291.649 16.184C292.311 14.9253 292.641 13.4747 292.641 11.832C292.641 10.1893 292.311 8.74933 291.649 7.512C291.009 6.27467 290.113 5.32533 288.961 4.664C287.809 4.00267 286.497 3.672 285.025 3.672C283.553 3.672 282.241 4.00267 281.089 4.664C279.937 5.32533 279.031 6.27467 278.369 7.512C277.729 8.74933 277.409 10.1893 277.409 11.832C277.409 13.4747 277.729 14.9253 278.369 16.184C279.031 17.4213 279.937 18.3813 281.089 19.064C282.241 19.7253 283.553 20.056 285.025 20.056Z" fill="current" fill-rule="evenodd"/>
        <path d="M348.327 23L343.207 14.104H340.423V23H336.775V0.76H344.455C346.162 0.76 347.602 1.05867 348.775 1.656C349.97 2.25333 350.855 3.05333 351.431 4.056C352.028 5.05867 352.327 6.17867 352.327 7.416C352.327 8.86667 351.9 10.1893 351.047 11.384C350.215 12.5573 348.924 13.3573 347.175 13.784L352.679 23H348.327ZM340.423 11.192H344.455C345.82 11.192 346.844 10.8507 347.527 10.168C348.231 9.48533 348.583 8.568 348.583 7.416C348.583 6.264 348.242 5.368 347.559 4.728C346.876 4.06667 345.842 3.736 344.455 3.736H340.423V11.192Z" fill="current" fill-rule="evenodd"/>
        <path d="M417.218 0.76V23H413.57V7.768L406.786 23H404.258L397.442 7.768V23H393.794V0.76H397.73L405.538 18.2L413.314 0.76H417.218Z" fill="current" fill-rule="evenodd"/>
    </svg>
    