<svg width="current" height="current" viewBox="0 0 422 24" xmlns="http://www.w3.org/2000/svg">
    <path d="M8.00839 0.76C10.3764 0.76 12.4457 1.21867 14.2164 2.136C16.0084 3.032 17.3844 4.33333 18.3444 6.04C19.3257 7.72533 19.8164 9.69867 19.8164 11.96C19.8164 14.2213 19.3257 16.184 18.3444 17.848C17.3844 19.512 16.0084 20.792 14.2164 21.688C12.4457 22.5627 10.3764 23 8.00839 23H0.744385V0.76H8.00839ZM8.00839 20.024C10.6111 20.024 12.6057 19.32 13.9924 17.912C15.3791 16.504 16.0724 14.52 16.0724 11.96C16.0724 9.37867 15.3791 7.36267 13.9924 5.912C12.6057 4.46133 10.6111 3.736 8.00839 3.736H4.39239V20.024H8.00839Z" fill="current" fill-rule="evenodd"/>
    <path d="M66.1199 3.704V10.232H73.7999V13.208H66.1199V20.024H74.7599V23H62.4719V0.728001H74.7599V3.704H66.1199Z" fill="current" fill-rule="evenodd"/>
    <path d="M125.621 23.224C124.128 23.224 122.784 22.968 121.589 22.456C120.394 21.9227 119.456 21.176 118.773 20.216C118.09 19.256 117.749 18.136 117.749 16.856H121.653C121.738 17.816 122.112 18.6053 122.773 19.224C123.456 19.8427 124.405 20.152 125.621 20.152C126.88 20.152 127.861 19.8533 128.565 19.256C129.269 18.6373 129.621 17.848 129.621 16.888C129.621 16.1413 129.397 15.5333 128.949 15.064C128.522 14.5947 127.978 14.232 127.317 13.976C126.677 13.72 125.781 13.4427 124.629 13.144C123.178 12.76 121.994 12.376 121.077 11.992C120.181 11.5867 119.413 10.968 118.773 10.136C118.133 9.304 117.813 8.19467 117.813 6.808C117.813 5.528 118.133 4.408 118.773 3.448C119.413 2.488 120.309 1.752 121.461 1.24C122.613 0.728001 123.946 0.472 125.461 0.472C127.616 0.472 129.376 1.016 130.741 2.104C132.128 3.17067 132.896 4.64267 133.045 6.52H129.013C128.949 5.70933 128.565 5.016 127.861 4.44C127.157 3.864 126.229 3.576 125.077 3.576C124.032 3.576 123.178 3.84267 122.517 4.376C121.856 4.90933 121.525 5.67733 121.525 6.68C121.525 7.36267 121.728 7.928 122.133 8.376C122.56 8.80267 123.093 9.144 123.733 9.4C124.373 9.656 125.248 9.93333 126.357 10.232C127.829 10.6373 129.024 11.0427 129.941 11.448C130.88 11.8533 131.669 12.4827 132.309 13.336C132.97 14.168 133.301 15.288 133.301 16.696C133.301 17.8267 132.992 18.8933 132.373 19.896C131.776 20.8987 130.89 21.7093 129.717 22.328C128.565 22.9253 127.2 23.224 125.621 23.224Z" fill="current" fill-rule="evenodd"/>
    <path d="M180.294 0.76V23H176.646V0.76H180.294Z" fill="current" fill-rule="evenodd"/>
    <path d="M240.219 7.16C239.643 6.05067 238.843 5.21867 237.819 4.664C236.795 4.088 235.611 3.8 234.267 3.8C232.795 3.8 231.483 4.13067 230.331 4.792C229.179 5.45333 228.272 6.392 227.611 7.608C226.971 8.824 226.651 10.232 226.651 11.832C226.651 13.432 226.971 14.8507 227.611 16.088C228.272 17.304 229.179 18.2427 230.331 18.904C231.483 19.5653 232.795 19.896 234.267 19.896C236.251 19.896 237.862 19.3413 239.099 18.232C240.336 17.1227 241.094 15.6187 241.371 13.72H233.019V10.808H245.275V13.656C245.04 15.384 244.422 16.9733 243.419 18.424C242.438 19.8747 241.147 21.0373 239.547 21.912C237.968 22.7653 236.208 23.192 234.267 23.192C232.176 23.192 230.267 22.712 228.539 21.752C226.811 20.7707 225.435 19.416 224.411 17.688C223.408 15.96 222.907 14.008 222.907 11.832C222.907 9.656 223.408 7.704 224.411 5.976C225.435 4.248 226.811 2.904 228.539 1.944C230.288 0.962667 232.198 0.472 234.267 0.472C236.635 0.472 238.736 1.05867 240.571 2.232C242.427 3.384 243.771 5.02667 244.603 7.16H240.219Z" fill="current" fill-rule="evenodd"/>
    <path d="M306.185 23H302.537L291.561 6.392V23H287.913V0.728001H291.561L302.537 17.304V0.728001H306.185V23Z" fill="current" fill-rule="evenodd"/>
    <path d="M353.664 3.704V10.232H361.344V13.208H353.664V20.024H362.304V23H350.016V0.728001H362.304V3.704H353.664Z" fill="current" fill-rule="evenodd"/>
    <path d="M417.389 23L412.269 14.104H409.485V23H405.837V0.76H413.517C415.224 0.76 416.664 1.05867 417.837 1.656C419.032 2.25333 419.917 3.05333 420.493 4.056C421.09 5.05867 421.389 6.17867 421.389 7.416C421.389 8.86667 420.962 10.1893 420.109 11.384C419.277 12.5573 417.986 13.3573 416.237 13.784L421.741 23H417.389ZM409.485 11.192H413.517C414.882 11.192 415.906 10.8507 416.589 10.168C417.293 9.48533 417.645 8.568 417.645 7.416C417.645 6.264 417.304 5.368 416.621 4.728C415.938 4.06667 414.904 3.736 413.517 3.736H409.485V11.192Z" fill="current" fill-rule="evenodd"/>
</svg>  